<?xml version="1.0" encoding="UTF-8"?>
<svg width="26px" height="34px" viewBox="0 0 26 34" version="1.1" xmlns="http://www.w3.org/2000/svg" xmlns:xlink="http://www.w3.org/1999/xlink">
    <!-- Generator: Sketch 41.2 (35397) - http://www.bohemiancoding.com/sketch -->
    <title>mic</title>
    <desc>Created with Sketch.</desc>
    <defs></defs>
    <g id="Page-1" stroke="none" stroke-width="1" fill="none" fill-rule="evenodd">
        <g id="Startscherm-Copy-40" transform="translate(-959.000000, -838.000000)" fill="#120029">
            <path d="M977.475356,854.250103 L977.491244,843.657586 C977.491244,840.730521 975.122052,838.361328 972.196752,838.361328 C969.273217,838.361328 966.900493,840.730521 966.900493,843.657586 L966.900493,854.250103 C966.900493,857.173637 969.273217,859.546361 972.196752,859.546361 C975.122052,859.546361 977.475356,857.173637 977.475356,854.250103 Z M981.551709,854.250103 C981.551709,859.546361 977.07284,863.253742 972.196752,863.253742 C967.322429,863.253742 962.840029,859.546361 962.840029,854.250103 L959.838816,854.250103 C959.838816,860.27901 964.638991,865.253962 970.431332,866.11019 L970.431332,871.904297 L973.962171,871.904297 L973.962171,866.11019 C979.750981,865.253962 984.554687,860.27901 984.554687,854.250103 L981.551709,854.250103 L981.551709,854.250103 Z" id="mic"></path>
        </g>
    </g>
</svg>